<?xml version="1.0" encoding="UTF-8"?><svg id="_레이어_1" xmlns="http://www.w3.org/2000/svg" xmlns:xlink="http://www.w3.org/1999/xlink" viewBox="0 0 122 122"><defs><style>.cls-1{fill:#fff;}.cls-2{fill:url(#radial-gradient);}.cls-3{fill:url(#_무제_그라디언트_7);}</style><linearGradient id="_무제_그라디언트_7" x1="28.42" y1="124.94" x2="93.58" y2="-2.94" gradientUnits="userSpaceOnUse"><stop offset=".1" stop-color="#ffd87a"/><stop offset=".15" stop-color="#fccb76"/><stop offset=".26" stop-color="#f4aa6c"/><stop offset=".4" stop-color="#e7745d"/><stop offset=".45" stop-color="#e36058"/><stop offset=".68" stop-color="#cb3592"/><stop offset="1" stop-color="#6567ae"/></linearGradient><radialGradient id="radial-gradient" cx="47.47" cy="83.38" fx="47.47" fy="83.38" r="50.41" gradientUnits="userSpaceOnUse"><stop offset=".1" stop-color="#ffd87a"/><stop offset=".15" stop-color="#fccb76"/><stop offset=".26" stop-color="#f4aa6c"/><stop offset=".4" stop-color="#e7745d"/><stop offset=".45" stop-color="#e36058"/><stop offset=".68" stop-color="#cb3592"/><stop offset="1" stop-color="#6567ae"/></radialGradient></defs><g><path class="cls-1" d="m121,95.19c0,14.25-11.62,25.81-25.96,25.81H26.96c-14.34,0-25.96-11.55-25.96-25.81V26.81C1,12.55,12.62,1,26.96,1h68.08c14.34,0,25.96,11.55,25.96,25.81v68.38Z"/><path class="cls-3" d="m95.04,3.5c12.94,0,23.46,10.46,23.46,23.31v68.38c0,12.85-10.53,23.31-23.46,23.31H26.96c-12.93,0-23.46-10.46-23.46-23.31V26.81C3.5,13.96,14.02,3.5,26.96,3.5h68.08m0-2.5H26.96C12.62,1,1,12.55,1,26.81v68.38c0,14.25,11.62,25.81,25.96,25.81h68.08c14.34,0,25.96-11.55,25.96-25.81V26.81c0-14.26-11.62-25.81-25.96-25.81h0Z"/></g><g><path class="cls-2" d="m73.68,31h-25.37c-9.56,0-17.32,7.75-17.32,17.32v25.36c0,9.57,7.75,17.31,17.32,17.31h25.37c9.57,0,17.32-7.74,17.32-17.31v-25.36c0-9.56-7.75-17.32-17.32-17.32Zm11.79,43.13c0,6.35-5.15,11.5-11.5,11.5h-25.96c-6.34,0-11.5-5.15-11.5-11.5v-25.96c0-6.35,5.15-11.5,11.5-11.5h25.96c6.35,0,11.5,5.15,11.5,11.5v25.96Z"/><path class="cls-2" d="m61,45.58c-8.6,0-15.57,6.97-15.57,15.57s6.97,15.57,15.57,15.57,15.57-6.97,15.57-15.57-6.98-15.57-15.57-15.57Zm0,25.66c-5.57,0-10.09-4.52-10.09-10.09s4.52-10.1,10.09-10.1,10.09,4.52,10.09,10.1-4.52,10.09-10.09,10.09Z"/><path class="cls-2" d="m77.09,41.36c-2,0-3.63,1.62-3.63,3.63s1.63,3.63,3.63,3.63,3.63-1.62,3.63-3.63-1.62-3.63-3.63-3.63Z"/></g></svg>