<?xml version="1.0" encoding="UTF-8"?><svg id="_레이어_1" xmlns="http://www.w3.org/2000/svg" viewBox="0 0 122 122"><defs><style>.cls-1{fill:#fff;}.cls-2{fill:#1877f2;}</style></defs><g><path class="cls-1" d="m26.96,119.75c-13.62,0-24.71-11.02-24.71-24.56V26.81C2.25,13.27,13.33,2.25,26.96,2.25h68.08c13.63,0,24.71,11.02,24.71,24.56v68.38c0,13.54-11.09,24.56-24.71,24.56H26.96Z"/><path class="cls-2" d="m95.04,3.5c12.94,0,23.46,10.46,23.46,23.31v68.38c0,12.85-10.53,23.31-23.46,23.31H26.96c-12.93,0-23.46-10.46-23.46-23.31V26.81C3.5,13.96,14.02,3.5,26.96,3.5h68.08m0-2.5H26.96C12.62,1,1,12.55,1,26.81v68.38c0,14.25,11.62,25.81,25.96,25.81h68.08c14.34,0,25.96-11.55,25.96-25.81V26.81c0-14.26-11.62-25.81-25.96-25.81h0Z"/></g><path class="cls-2" d="m65.65,91v-27.37h9.19l1.37-10.66h-10.56v-6.81c0-3.09.86-5.19,5.28-5.19h5.65v-9.54c-.98-.13-4.33-.42-8.23-.42-8.14,0-13.72,4.97-13.72,14.1v7.87h-9.21v10.66h9.21v27.37h11.02Z"/></svg>